<?xml version="1.0" standalone="no"?>
<!DOCTYPE svg PUBLIC "-//W3C//DTD SVG 20010904//EN" "http://www.w3.org/TR/2001/REC-SVG-20010904/DTD/svg10.dtd">
<svg version="1.0" xmlns="http://www.w3.org/2000/svg" width="500.000000pt" height="500.000000pt" viewBox="0 0 500.000000 500.000000" preserveAspectRatio="xMidYMid meet">

  <g transform="translate(0.000000,500.000000) scale(0.100000,-0.100000)" fill="#3b38ff" stroke="none">
    <path d="M1692 3310 c-18 -11 -41 -34 -52 -52 -19 -32 -20 -52 -20 -568 0
-516 1 -536 20 -568 11 -18 34 -41 52 -52 31 -19 51 -20 337 -20 l303 0 -89
98 c-142 155 -143 157 -143 213 0 42 5 54 35 88 19 21 35 42 35 47 0 5 -17 25
-37 44 -75 73 -100 199 -55 285 24 47 83 106 129 129 72 36 218 13 268 -44 39
-43 53 -44 95 -6 82 74 120 65 280 -68 l125 -103 3 245 c3 273 1 284 -68 329
l-33 23 -576 0 c-557 0 -577 -1 -609 -20z m193 -156 c25 -25 16 -75 -17 -94
-25 -13 -31 -13 -55 0 -56 31 -36 110 27 110 16 0 36 -7 45 -16z" />
    <path d="M2276 2840 c-66 -20 -107 -92 -87 -153 6 -18 26 -48 44 -66 l34 -32
81 85 c45 47 82 90 82 95 0 13 -68 71 -85 71 -7 0 -19 2 -27 4 -7 2 -26 0 -42
-4z" />
  </g>
</svg>
